HIERARCHY
ROOT Hips
{
	OFFSET 0.00000 0.00000 0.00000
	CHANNELS 6 Xposition Yposition Zposition Zrotation Yrotation Xrotation 
	JOINT LHipJoint
	{
		OFFSET 0 0 0
		CHANNELS 3 Zrotation Yrotation Xrotation
		JOINT LeftHip
		{
			OFFSET 1.38280 -1.96574 0.54427
			CHANNELS 3 Zrotation Yrotation Xrotation
			JOINT LeftKnee
			{
				OFFSET 2.72096 -7.47578 0.00000
				CHANNELS 3 Zrotation Yrotation Xrotation
				JOINT LeftAnkle
				{
					OFFSET 2.73041 -7.50176 0.00000
					CHANNELS 3 Zrotation Yrotation Xrotation
					JOINT LeftToe
					{
						OFFSET 0.16150 -0.44371 2.18031
						CHANNELS 3 Zrotation Yrotation Xrotation
						End Site
						{
							OFFSET 0.00000 -0.00000 1.12127
						}
					}
				}
			}
		}
	}
	JOINT RHipJoint
	{
		OFFSET 0 0 0
		CHANNELS 3 Zrotation Yrotation Xrotation
		JOINT RightHip
		{
			OFFSET -1.57224 -1.96575 0.54427
			CHANNELS 3 Zrotation Yrotation Xrotation
			JOINT RightKnee
			{
				OFFSET -2.95935 -8.13076 0.00000
				CHANNELS 3 Zrotation Yrotation Xrotation
				JOINT RightAnkle
				{
					OFFSET -2.52345 -6.93311 0.00000
					CHANNELS 3 Zrotation Yrotation Xrotation
					JOINT RightToe
					{
						OFFSET -0.04475 -0.10171 1.86688
						CHANNELS 3 Zrotation Yrotation Xrotation
						End Site
						{
							OFFSET -0.00000 -0.00000 0.95157
						}
					}
				}
			}
		}
	}
	JOINT lowerback
	{
		OFFSET 0 0 0
		CHANNELS 3 Zrotation Yrotation Xrotation
		JOINT Chest
		{
			OFFSET 0.00669 2.07367 0.09104
			CHANNELS 3 Zrotation Yrotation Xrotation
			JOINT Chest2
			{
				OFFSET -0.00664 2.06198 -0.04732
				CHANNELS 3 Zrotation Yrotation Xrotation
				JOINT lowerneck
				{
					OFFSET 0 0 0
					CHANNELS 3 Zrotation Yrotation Xrotation
					JOINT Neck
					{
						OFFSET -0.00021 1.49948 0.16345
						CHANNELS 3 Zrotation Yrotation Xrotation
						JOINT Head
						{
							OFFSET 0.06080 1.50567 -0.26702
							CHANNELS 3 Zrotation Yrotation Xrotation
							End Site
							{
								OFFSET 0.01726 1.56470 -0.11854
							}
						}
					}
				}
				JOINT LeftCollar
				{
					OFFSET 0 0 0
					CHANNELS 3 Zrotation Yrotation Xrotation
					JOINT LeftShoulder
					{
						OFFSET 3.14993 0.82932 -0.22488
CHANNELS 3 Zrotation Xrotation Yrotation
						JOINT LeftElbow
						{
OFFSET 0 -5.682360 -0.000000
CHANNELS 3 Zrotation Xrotation Yrotation
							JOINT LeftWrist
							{
OFFSET 0 -3.171120 0.000000
CHANNELS 3 Zrotation Xrotation Yrotation
								JOINT lhand
								{
									OFFSET 0 0 0
CHANNELS 3 Zrotation Xrotation Yrotation
									JOINT LFingers
									{
OFFSET 0 -0.632690 0.000000
CHANNELS 3 Zrotation Xrotation Yrotation
										End Site
										{
OFFSET 0 -0.510090 0.000000
										}
									}
								}
								JOINT LThumb
								{
OFFSET 0 0.000000 0.000000
CHANNELS 3 Zrotation Xrotation Yrotation
									End Site
									{
OFFSET 0 -0.517880 0.517880
									}
								}
							}
						}
					}
				}
				JOINT RightCollar
				{
					OFFSET 0 0 0
					CHANNELS 3 Zrotation Yrotation Xrotation
					JOINT RightShoulder
					{
						OFFSET -3.10571 0.91279 -0.33334
CHANNELS 3 Zrotation Xrotation Yrotation
						JOINT RightElbow
						{
OFFSET 0 -5.871200 -0.000000
CHANNELS 3 Zrotation Xrotation Yrotation
							JOINT RightWrist
							{
OFFSET 0 -3.375890 0.000000
CHANNELS 3 Zrotation Xrotation Yrotation
								JOINT rhand
								{
									OFFSET 0 0 0
CHANNELS 3 Zrotation Xrotation Yrotation
									JOINT RFingers
									{
OFFSET 0 -0.603260 0.000000
CHANNELS 3 Zrotation Xrotation Yrotation
										End Site
										{
OFFSET 0 -0.486360 0.000000
										}
									}
								}
								JOINT RThumb
								{
OFFSET 0 0.000000 0.000000
CHANNELS 3 Zrotation Xrotation Yrotation
									End Site
									{
OFFSET 0 -0.493790 0.493790
									}
								}
							}
						}
					}
				}
			}
		}
	}
}
MOTION
Frames: 12
Frame Time: 0.008333333333333333
13.523444 18.394958 -1.966229 -181.626710 -78.666843 186.952629 0.000000 0.000000 0.000000 -14.239312 -8.835401 -5.328381 1.643054 8.079170 22.954763 3.110948 4.004525 -34.914850 0.146314 -2.461171 -6.782265 0.000000 0.000000 0.000000 20.450246 9.470232 -10.354723 -2.303019 -9.470611 27.278873 0.409633 11.839617 0.439818 -4.649174 -12.977482 39.284250 0.535405 0.037385 -5.357717 1.440266 -0.051297 0.823954 1.181237 -0.034248 3.856946 -2.495079 0.622128 -17.474951 -0.846103 1.609760 14.859595 0.308895 0.526787 7.431874 0.000000 0.000000 0.000000 2.416358 7.771710 -23.706113 13.780870 -22.420471 2.744042 8.582412 -4.480990 -35.874773 0.000000 0.000000 0.000000 -7.125000 0.000000 0.000000 -30.955707 63.524363 14.604834 0.000000 0.000000 0.000000 -4.687379 8.537073 0.660089 -17.029444 -26.896543 -4.100640 -14.691378 11.453320 -28.520270 0.000000 0.000000 0.000000 7.125000 0.000000 0.000000 9.302575 0.990195 9.264070
13.443073 18.297504 -2.410302 -181.303681 -78.167593 187.477279 0.000000 0.000000 0.000000 -12.323303 -4.502380 -13.197689 3.177983 10.977622 32.204656 2.574130 3.260508 -31.612178 0.115273 -2.187648 -6.024485 0.000000 0.000000 0.000000 21.590661 7.315468 -12.606006 -2.628450 -10.067880 29.196693 0.568465 13.255051 3.835651 -4.524260 -12.827173 38.724872 1.080407 -0.312729 -4.589532 1.590327 -0.552412 1.083957 0.990193 -0.274661 3.697597 -2.214089 0.902691 -17.368521 -0.973447 1.928693 13.799611 0.252772 0.703575 7.067051 0.000000 0.000000 0.000000 3.217905 4.522481 -27.143187 17.140218 -27.042258 4.150963 10.541405 -6.442291 -35.308662 0.000000 0.000000 0.000000 -7.125000 0.000000 0.000000 -28.260568 63.562461 13.249596 0.000000 0.000000 0.000000 -5.921543 7.601890 3.373237 -17.538924 -27.562742 -4.333772 -15.914572 8.920266 -27.847788 0.000000 0.000000 0.000000 7.125000 0.000000 0.000000 8.526186 1.474426 8.398208
13.301910 18.237353 -2.727755 -183.616391 -78.208455 190.806275 0.000000 0.000000 0.000000 -12.959792 -3.962282 -25.376085 6.297985 14.710516 46.165188 1.525914 2.523002 -24.360936 0.639310 -5.115110 -14.237078 0.000000 0.000000 0.000000 21.959958 7.398925 -13.729128 -2.873242 -10.487013 30.568591 0.669871 14.405256 3.649895 -4.426067 -12.706771 38.280555 1.065987 -0.222864 -4.081782 1.716774 -0.433354 1.352400 1.139614 -0.218613 3.688757 -1.881736 0.768162 -17.828307 -0.753493 1.645261 14.234542 0.243634 0.600194 7.288992 0.000000 0.000000 0.000000 3.146374 1.535884 -30.261888 23.377488 -34.497326 7.351636 12.374319 -9.339946 -34.743012 0.000000 0.000000 0.000000 -7.125000 0.000000 0.000000 -25.693930 63.554551 11.956645 0.000000 0.000000 0.000000 -7.717115 5.813661 3.551699 -16.834724 -26.639276 -4.012988 -15.714501 9.285278 -29.001756 0.000000 0.000000 0.000000 7.125000 0.000000 0.000000 8.744882 0.348525 8.794788
13.016237 18.225544 -2.948395 -186.454255 -76.517451 194.827127 0.000000 0.000000 0.000000 -15.967098 -5.658541 -33.834492 6.728069 15.098430 47.837925 1.176456 0.233688 -20.596919 0.868620 -5.942435 -16.617630 0.000000 0.000000 0.000000 21.529257 8.659419 -13.799849 -2.943274 -10.602647 30.951208 0.799066 15.751615 3.497797 -4.362822 -12.628118 37.991969 1.065001 0.364789 -3.914888 1.440440 0.365744 1.426703 0.912035 0.183465 3.662752 -1.885739 0.757191 -18.036126 -0.694550 1.625431 13.961318 0.261503 0.600447 7.234003 0.000000 0.000000 0.000000 3.248955 1.375634 -32.850113 30.550091 -41.359946 11.771580 13.304074 -11.847006 -33.559981 0.000000 0.000000 0.000000 -7.125000 0.000000 0.000000 -23.498493 62.741416 10.426979 0.000000 0.000000 0.000000 -8.662612 3.678968 4.655195 -16.389644 -26.046060 -3.815475 -16.923322 9.615262 -28.494202 0.000000 0.000000 0.000000 7.125000 0.000000 0.000000 7.989752 0.661148 7.975221
12.566971 18.261768 -3.146699 -187.154611 -75.809110 196.334045 0.000000 0.000000 0.000000 -19.651742 -6.553679 -37.478646 4.232616 12.463387 37.392111 1.218081 3.613814 -22.435174 0.674716 -5.252127 -14.629091 0.000000 0.000000 0.000000 21.704956 8.680918 -11.764447 -2.529483 -9.891378 28.625618 0.764000 15.478328 2.986215 -4.289016 -12.535444 37.653337 0.972142 0.454524 -3.930105 1.367824 0.490104 1.586980 0.899396 0.244380 3.836075 -1.669914 0.721579 -17.908657 -1.092230 1.576747 13.127821 0.087972 0.563196 6.945942 0.000000 0.000000 0.000000 3.194429 0.741465 -33.093161 29.864219 -40.776607 11.320893 10.803073 -12.635473 -34.068038 0.000000 0.000000 0.000000 -7.125000 0.000000 0.000000 -26.667671 62.552309 11.815433 0.000000 0.000000 0.000000 -8.431949 2.212701 7.818787 -18.022881 -28.186440 -4.559994 -18.188249 7.253125 -29.326915 0.000000 0.000000 0.000000 7.125000 0.000000 0.000000 7.334798 -0.396767 7.446469
11.939462 18.250915 -3.335080 -183.159037 -74.698755 193.167805 0.000000 0.000000 0.000000 -23.670296 -2.793853 -39.816784 1.899412 8.652364 24.714469 0.776616 4.454229 -18.845945 0.800849 -5.709963 -15.945653 0.000000 0.000000 0.000000 22.813297 6.978248 -9.167086 -1.996666 -8.859017 25.355391 0.729186 14.944007 4.655185 -4.267007 -12.507486 37.551689 1.109062 0.589324 -4.443151 1.651207 0.642062 1.351024 1.130128 0.318065 3.879179 -1.158871 1.144464 -18.837974 -2.794643 2.400833 16.280046 -0.453495 0.744442 8.178854 0.000000 0.000000 0.000000 2.601080 -0.067106 -29.588231 21.501579 -32.406827 6.317719 10.460255 -9.739590 -34.445682 0.000000 0.000000 0.000000 -7.125000 0.000000 0.000000 -27.418039 62.794222 12.330701 0.000000 0.000000 0.000000 -7.989006 2.568934 10.928192 -20.808384 -31.603736 -5.949285 -25.151902 3.723488 -32.897202 0.000000 0.000000 0.000000 7.125000 0.000000 0.000000 3.878322 -5.498353 4.241006
11.122299 18.171683 -3.515525 -178.128793 -72.834675 188.443362 0.000000 0.000000 0.000000 -25.451932 0.294679 -40.349301 1.318415 7.272467 20.525045 1.527053 7.696484 -27.238245 0.179477 -2.725689 -7.516084 0.000000 0.000000 0.000000 24.097594 5.320064 -5.654860 -1.657704 -8.113416 23.059091 0.667380 14.328179 6.440917 -3.932036 -12.069444 35.978017 0.921282 0.661578 -4.722522 1.538551 0.749264 1.414856 1.132300 0.369024 4.100974 -1.202870 1.347163 -18.468673 -2.463109 2.592303 15.147569 -0.314857 0.895908 7.731530 0.000000 0.000000 0.000000 2.676299 -0.049846 -21.951433 14.516808 -23.468162 3.031161 10.468318 -4.389746 -35.391769 0.000000 0.000000 0.000000 -7.125000 0.000000 0.000000 -28.430268 63.614474 13.370213 0.000000 0.000000 0.000000 -7.059551 2.189233 9.159506 -22.924373 -34.005920 -7.095992 -35.435436 -5.237653 -34.659397 0.000000 0.000000 0.000000 7.125000 0.000000 0.000000 -1.331323 -10.327688 -1.548994
10.061897 18.142747 -3.707558 -177.152654 -71.888139 187.968252 0.000000 0.000000 0.000000 -24.858385 0.103025 -39.695314 1.835024 8.513479 24.284888 1.303008 9.814526 -27.140156 0.035912 1.221072 3.357311 0.000000 0.000000 0.000000 23.778787 3.769015 -2.531318 -1.550499 -7.859263 22.287530 0.457556 12.411295 8.414613 -3.146443 -10.928348 32.038844 -1.053525 0.337105 -5.612925 0.978553 0.481638 1.143502 1.648155 0.198223 4.314457 -1.499793 1.160917 -19.947522 -1.325001 2.247232 14.852430 0.078164 0.833202 7.862612 0.000000 0.000000 0.000000 2.926558 2.094254 -16.867428 12.158686 -20.042156 2.156395 9.973914 -1.333075 -36.019312 0.000000 0.000000 0.000000 -7.125000 0.000000 0.000000 -29.667624 64.017922 14.281728 0.000000 0.000000 0.000000 -7.183727 2.406460 6.967369 -23.203541 -34.310669 -7.252681 -31.801377 -3.970947 -33.205057 0.000000 0.000000 0.000000 7.125000 0.000000 0.000000 0.277250 -7.620855 0.311096
8.768760 18.277151 -3.873883 -178.197207 -74.518539 189.255616 0.000000 0.000000 0.000000 -25.687103 -0.448617 -36.528615 2.212450 9.295183 26.723212 1.211530 8.833332 -25.717205 0.155759 2.542801 7.008393 0.000000 0.000000 0.000000 22.859201 3.048889 -0.276968 -1.882114 -8.615629 24.600411 -0.004940 5.984105 8.678694 -1.757120 -8.339801 23.751542 -2.925615 -0.362341 -7.522429 0.022091 -0.238368 0.072069 1.640676 -0.186175 4.308674 -1.445595 0.824540 -20.491759 -0.693502 1.679779 16.315654 0.217907 0.611945 8.442605 0.000000 0.000000 0.000000 3.304987 3.565825 -18.020317 12.447567 -20.472393 2.256407 9.113203 -2.057068 -35.567626 0.000000 0.000000 0.000000 -7.125000 0.000000 0.000000 -30.051169 63.405902 14.054904 0.000000 0.000000 0.000000 -7.684967 4.629054 4.923682 -18.944699 -29.348762 -5.004250 -11.370359 9.906258 -28.637370 0.000000 0.000000 0.000000 7.125000 0.000000 0.000000 11.254552 1.347670 11.207369
7.584378 18.267881 -3.970922 -182.315129 -77.624516 192.782472 0.000000 0.000000 0.000000 -27.019384 -1.236533 -32.479616 2.642999 10.093379 29.279826 1.745581 4.264312 -26.791914 0.161017 2.585058 7.125544 0.000000 0.000000 0.000000 20.256246 1.410583 -4.556033 -4.290217 -12.534535 37.653872 -0.698196 -3.240934 15.016285 -0.821958 -5.784482 16.160385 -5.047867 -0.650576 -8.267401 -1.287353 -0.390673 -0.596863 1.452984 -0.292157 4.043938 -1.947785 0.545928 -21.112285 -0.173357 1.361611 16.128983 0.436600 0.490336 8.479249 0.000000 0.000000 0.000000 4.462373 1.495640 -24.688958 14.772759 -23.828378 3.133667 10.643480 -4.966104 -35.578242 0.000000 0.000000 0.000000 -7.125000 0.000000 0.000000 -28.454261 63.821167 13.519789 0.000000 0.000000 0.000000 -6.478757 6.935624 4.338493 -15.288256 -24.546112 -3.344758 -9.516292 17.455942 -29.639185 0.000000 0.000000 0.000000 7.125000 0.000000 0.000000 12.385599 0.604175 12.552264
6.692289 18.211436 -3.938452 -182.689993 -81.219461 192.410586 0.000000 0.000000 0.000000 -27.526395 -1.527385 -29.092534 2.978777 10.660695 31.143869 1.923173 1.549499 -26.814501 0.032932 1.171008 3.219473 0.000000 0.000000 0.000000 18.111460 4.158423 -13.407519 -8.357172 -16.375691 53.839082 -0.065952 -0.499894 4.661610 -1.206302 -6.966505 19.616642 -5.235392 -0.764268 -7.670043 -1.521263 -0.535522 -0.225205 1.300584 -0.370298 4.105748 -1.845941 1.478324 -21.447091 -2.145845 2.981568 15.055943 -0.037387 1.055192 8.196880 0.000000 0.000000 0.000000 4.091400 -5.371923 -31.170861 16.149312 -25.722744 3.710547 11.998795 -5.262944 -35.525934 0.000000 0.000000 0.000000 -7.125000 0.000000 0.000000 -26.948844 64.140275 12.950307 0.000000 0.000000 0.000000 -4.895177 6.556987 6.040993 -15.936624 -25.434521 -3.618753 -12.886784 13.554027 -28.934553 0.000000 0.000000 0.000000 7.125000 0.000000 0.000000 10.389524 0.844712 10.408642
5.832173 18.207950 -3.819939 -165.495212 -87.498684 174.110199 0.000000 0.000000 0.000000 -26.707396 -4.105781 -23.101894 2.956960 10.624968 31.025245 2.159389 -2.087312 -27.246311 0.139896 2.410302 6.640931 0.000000 0.000000 0.000000 16.227538 11.370641 -19.067674 -7.892645 -16.039243 52.174348 -0.336291 6.867994 -10.690617 -3.928332 -12.063047 35.957192 -4.174044 -1.014177 -7.236791 -0.669320 -0.985971 0.098754 1.543418 -0.577061 4.223844 -1.339159 2.052789 -20.616636 -2.082682 3.616979 16.454700 -0.015075 1.370054 8.537505 0.000000 0.000000 0.000000 1.694908 -11.968803 -39.158203 16.823094 -26.623608 4.007924 10.521566 -6.758824 -34.998887 0.000000 0.000000 0.000000 -7.125000 0.000000 0.000000 -27.942008 63.289908 12.910408 0.000000 0.000000 0.000000 -4.698835 7.049807 10.121670 -18.897636 -29.291078 -4.980764 -16.390214 7.182382 -28.799187 0.000000 0.000000 0.000000 7.125000 0.000000 0.000000 8.331240 0.442176 8.355655
